<?xml version="1.0" encoding="UTF-8"?>
<svg xmlns="http://www.w3.org/2000/svg" viewBox="0 0 1440 1272" width="1440" height="1272" role="img" aria-label="Static Fill Benchmark">
<rect x="0.0" y="0.0" width="1440.0" height="1272.0" rx="0.0" fill="#ffffff"/>
<text x="24.0" y="18.0" font-family="Segoe UI, Arial, sans-serif" font-size="22" font-weight="800" fill="#111827" text-anchor="start">Static Fill Benchmark</text>
<text x="24.0" y="36.0" font-family="Segoe UI, Arial, sans-serif" font-size="12" font-weight="400" fill="#6b7280" text-anchor="start">Source: profile/benchmark/CROSS_LIBRARY_RESULTS.md</text>
<rect x="24.0" y="24.0" width="1392.0" height="26.0" rx="10.0" fill="#111827"/>
<text x="720.0" y="42.0" font-family="Segoe UI, Arial, sans-serif" font-size="14" font-weight="700" fill="#ffffff" text-anchor="middle">Standard</text>
<rect x="24.0" y="60.0" width="690.0" height="352.0" rx="14.0" fill="#f8fafc" stroke="#e5e7eb" stroke-width="1"/>
<text x="40.0" y="84.0" font-family="Segoe UI, Arial, sans-serif" font-size="17" font-weight="700" fill="#111827" text-anchor="start">Speed (ns/attempt)</text>
<text x="40.0" y="100.0" font-family="Segoe UI, Arial, sans-serif" font-size="11" font-weight="400" fill="#6b7280" text-anchor="start">Longer bars indicate better results</text>
<rect x="38.0" y="120.0" width="10.0" height="10.0" rx="3.0" fill="#e15759"/>
<text x="54.0" y="131.0" font-family="Segoe UI, Arial, sans-serif" font-size="13" font-weight="600" fill="#111827" text-anchor="start">RectangleBinPack-MaxRects-BSSF</text>
<text x="54.0" y="145.0" font-family="Segoe UI, Arial, sans-serif" font-size="10" fill="#64748b"><tspan x="54.0" dy="0">packed: 105</tspan></text>
<rect x="264.0" y="122.0" width="300.0" height="16.0" rx="8.0" fill="#e5e7eb"/>
<rect x="264.0" y="122.0" width="300.0" height="16.0" rx="8.0" fill="#e15759"/>
<text x="576.0" y="135.0" font-family="Segoe UI, Arial, sans-serif" font-size="12" font-weight="600" fill="#374151" text-anchor="start">69.645 ns</text>
<rect x="32.0" y="152.0" width="674.0" height="38.0" rx="8.0" fill="#eef2ff"/>
<rect x="38.0" y="162.0" width="10.0" height="10.0" rx="3.0" fill="#f28e2b"/>
<text x="54.0" y="173.0" font-family="Segoe UI, Arial, sans-serif" font-size="13" font-weight="600" fill="#111827" text-anchor="start">RectangleBinPack-MaxRects-BAF</text>
<text x="54.0" y="187.0" font-family="Segoe UI, Arial, sans-serif" font-size="10" fill="#64748b"><tspan x="54.0" dy="0">packed: 108</tspan></text>
<rect x="264.0" y="164.0" width="300.0" height="16.0" rx="8.0" fill="#e5e7eb"/>
<rect x="264.0" y="164.0" width="286.4" height="16.0" rx="8.0" fill="#f28e2b"/>
<text x="576.0" y="177.0" font-family="Segoe UI, Arial, sans-serif" font-size="12" font-weight="600" fill="#374151" text-anchor="start">72.955 ns</text>
<rect x="38.0" y="204.0" width="10.0" height="10.0" rx="3.0" fill="#59a14f"/>
<text x="54.0" y="215.0" font-family="Segoe UI, Arial, sans-serif" font-size="13" font-weight="600" fill="#111827" text-anchor="start">allocator2d</text>
<text x="54.0" y="229.0" font-family="Segoe UI, Arial, sans-serif" font-size="10" fill="#64748b"><tspan x="54.0" dy="0">packed: 107</tspan></text>
<rect x="264.0" y="206.0" width="300.0" height="16.0" rx="8.0" fill="#e5e7eb"/>
<rect x="264.0" y="206.0" width="195.2" height="16.0" rx="8.0" fill="#59a14f"/>
<text x="576.0" y="219.0" font-family="Segoe UI, Arial, sans-serif" font-size="12" font-weight="600" fill="#374151" text-anchor="start">107.025 ns</text>
<rect x="32.0" y="236.0" width="674.0" height="38.0" rx="8.0" fill="#eef2ff"/>
<rect x="38.0" y="246.0" width="10.0" height="10.0" rx="3.0" fill="#4e79a7"/>
<text x="54.0" y="257.0" font-family="Segoe UI, Arial, sans-serif" font-size="13" font-weight="600" fill="#111827" text-anchor="start">RectangleBinPack-Guillotine-BAF</text>
<text x="54.0" y="271.0" font-family="Segoe UI, Arial, sans-serif" font-size="10" fill="#64748b"><tspan x="54.0" dy="0">packed: 104</tspan></text>
<rect x="264.0" y="248.0" width="300.0" height="16.0" rx="8.0" fill="#e5e7eb"/>
<rect x="264.0" y="248.0" width="129.8" height="16.0" rx="8.0" fill="#4e79a7"/>
<text x="576.0" y="261.0" font-family="Segoe UI, Arial, sans-serif" font-size="12" font-weight="600" fill="#374151" text-anchor="start">160.940 ns</text>
<rect x="38.0" y="288.0" width="10.0" height="10.0" rx="3.0" fill="#af7aa1"/>
<text x="54.0" y="299.0" font-family="Segoe UI, Arial, sans-serif" font-size="13" font-weight="600" fill="#111827" text-anchor="start">stb_rect_pack</text>
<text x="54.0" y="313.0" font-family="Segoe UI, Arial, sans-serif" font-size="10" fill="#64748b"><tspan x="54.0" dy="0">packed: 104</tspan></text>
<rect x="264.0" y="290.0" width="300.0" height="16.0" rx="8.0" fill="#e5e7eb"/>
<rect x="264.0" y="290.0" width="115.1" height="16.0" rx="8.0" fill="#af7aa1"/>
<text x="576.0" y="303.0" font-family="Segoe UI, Arial, sans-serif" font-size="12" font-weight="600" fill="#374151" text-anchor="start">181.495 ns</text>
<rect x="32.0" y="320.0" width="674.0" height="38.0" rx="8.0" fill="#eef2ff"/>
<rect x="38.0" y="330.0" width="10.0" height="10.0" rx="3.0" fill="#76b7b2"/>
<text x="54.0" y="341.0" font-family="Segoe UI, Arial, sans-serif" font-size="13" font-weight="600" fill="#111827" text-anchor="start">RectangleBinPack-Skyline-MWF</text>
<text x="54.0" y="355.0" font-family="Segoe UI, Arial, sans-serif" font-size="10" fill="#64748b"><tspan x="54.0" dy="0">packed: 105</tspan></text>
<rect x="264.0" y="332.0" width="300.0" height="16.0" rx="8.0" fill="#e5e7eb"/>
<rect x="264.0" y="332.0" width="66.0" height="16.0" rx="8.0" fill="#76b7b2"/>
<text x="576.0" y="345.0" font-family="Segoe UI, Arial, sans-serif" font-size="12" font-weight="600" fill="#374151" text-anchor="start">316.715 ns</text>
<rect x="38.0" y="372.0" width="10.0" height="10.0" rx="3.0" fill="#edc949"/>
<text x="54.0" y="383.0" font-family="Segoe UI, Arial, sans-serif" font-size="13" font-weight="600" fill="#111827" text-anchor="start">rectpack2D-empty_spaces</text>
<text x="54.0" y="397.0" font-family="Segoe UI, Arial, sans-serif" font-size="10" fill="#64748b"><tspan x="54.0" dy="0">packed: 112</tspan></text>
<rect x="264.0" y="374.0" width="300.0" height="16.0" rx="8.0" fill="#e5e7eb"/>
<rect x="264.0" y="374.0" width="38.2" height="16.0" rx="8.0" fill="#edc949"/>
<text x="576.0" y="387.0" font-family="Segoe UI, Arial, sans-serif" font-size="12" font-weight="600" fill="#374151" text-anchor="start">546.990 ns</text>
<rect x="732.0" y="60.0" width="690.0" height="352.0" rx="14.0" fill="#f8fafc" stroke="#e5e7eb" stroke-width="1"/>
<text x="748.0" y="84.0" font-family="Segoe UI, Arial, sans-serif" font-size="17" font-weight="700" fill="#111827" text-anchor="start">Space utilization (%)</text>
<text x="748.0" y="100.0" font-family="Segoe UI, Arial, sans-serif" font-size="11" font-weight="400" fill="#6b7280" text-anchor="start">Longer bars indicate better results</text>
<rect x="746.0" y="120.0" width="10.0" height="10.0" rx="3.0" fill="#e15759"/>
<text x="762.0" y="131.0" font-family="Segoe UI, Arial, sans-serif" font-size="13" font-weight="600" fill="#111827" text-anchor="start">RectangleBinPack-MaxRects-BSSF</text>
<text x="762.0" y="145.0" font-family="Segoe UI, Arial, sans-serif" font-size="10" fill="#64748b"><tspan x="762.0" dy="0">packed: 105</tspan></text>
<rect x="972.0" y="122.0" width="300.0" height="16.0" rx="8.0" fill="#e5e7eb"/>
<rect x="972.0" y="122.0" width="298.4" height="16.0" rx="8.0" fill="#e15759"/>
<text x="1284.0" y="135.0" font-family="Segoe UI, Arial, sans-serif" font-size="12" font-weight="600" fill="#374151" text-anchor="start">99.48%</text>
<rect x="740.0" y="152.0" width="674.0" height="38.0" rx="8.0" fill="#eef2ff"/>
<rect x="746.0" y="162.0" width="10.0" height="10.0" rx="3.0" fill="#f28e2b"/>
<text x="762.0" y="173.0" font-family="Segoe UI, Arial, sans-serif" font-size="13" font-weight="600" fill="#111827" text-anchor="start">RectangleBinPack-MaxRects-BAF</text>
<text x="762.0" y="187.0" font-family="Segoe UI, Arial, sans-serif" font-size="10" fill="#64748b"><tspan x="762.0" dy="0">packed: 108</tspan></text>
<rect x="972.0" y="164.0" width="300.0" height="16.0" rx="8.0" fill="#e5e7eb"/>
<rect x="972.0" y="164.0" width="298.2" height="16.0" rx="8.0" fill="#f28e2b"/>
<text x="1284.0" y="177.0" font-family="Segoe UI, Arial, sans-serif" font-size="12" font-weight="600" fill="#374151" text-anchor="start">99.39%</text>
<rect x="746.0" y="204.0" width="10.0" height="10.0" rx="3.0" fill="#59a14f"/>
<text x="762.0" y="215.0" font-family="Segoe UI, Arial, sans-serif" font-size="13" font-weight="600" fill="#111827" text-anchor="start">allocator2d</text>
<text x="762.0" y="229.0" font-family="Segoe UI, Arial, sans-serif" font-size="10" fill="#64748b"><tspan x="762.0" dy="0">packed: 107</tspan></text>
<rect x="972.0" y="206.0" width="300.0" height="16.0" rx="8.0" fill="#e5e7eb"/>
<rect x="972.0" y="206.0" width="289.5" height="16.0" rx="8.0" fill="#59a14f"/>
<text x="1284.0" y="219.0" font-family="Segoe UI, Arial, sans-serif" font-size="12" font-weight="600" fill="#374151" text-anchor="start">96.50%</text>
<rect x="740.0" y="236.0" width="674.0" height="38.0" rx="8.0" fill="#eef2ff"/>
<rect x="746.0" y="246.0" width="10.0" height="10.0" rx="3.0" fill="#4e79a7"/>
<text x="762.0" y="257.0" font-family="Segoe UI, Arial, sans-serif" font-size="13" font-weight="600" fill="#111827" text-anchor="start">RectangleBinPack-Guillotine-BAF</text>
<text x="762.0" y="271.0" font-family="Segoe UI, Arial, sans-serif" font-size="10" fill="#64748b"><tspan x="762.0" dy="0">packed: 104</tspan></text>
<rect x="972.0" y="248.0" width="300.0" height="16.0" rx="8.0" fill="#e5e7eb"/>
<rect x="972.0" y="248.0" width="291.4" height="16.0" rx="8.0" fill="#4e79a7"/>
<text x="1284.0" y="261.0" font-family="Segoe UI, Arial, sans-serif" font-size="12" font-weight="600" fill="#374151" text-anchor="start">97.15%</text>
<rect x="746.0" y="288.0" width="10.0" height="10.0" rx="3.0" fill="#af7aa1"/>
<text x="762.0" y="299.0" font-family="Segoe UI, Arial, sans-serif" font-size="13" font-weight="600" fill="#111827" text-anchor="start">stb_rect_pack</text>
<text x="762.0" y="313.0" font-family="Segoe UI, Arial, sans-serif" font-size="10" fill="#64748b"><tspan x="762.0" dy="0">packed: 104</tspan></text>
<rect x="972.0" y="290.0" width="300.0" height="16.0" rx="8.0" fill="#e5e7eb"/>
<rect x="972.0" y="290.0" width="289.5" height="16.0" rx="8.0" fill="#af7aa1"/>
<text x="1284.0" y="303.0" font-family="Segoe UI, Arial, sans-serif" font-size="12" font-weight="600" fill="#374151" text-anchor="start">96.50%</text>
<rect x="740.0" y="320.0" width="674.0" height="38.0" rx="8.0" fill="#eef2ff"/>
<rect x="746.0" y="330.0" width="10.0" height="10.0" rx="3.0" fill="#76b7b2"/>
<text x="762.0" y="341.0" font-family="Segoe UI, Arial, sans-serif" font-size="13" font-weight="600" fill="#111827" text-anchor="start">RectangleBinPack-Skyline-MWF</text>
<text x="762.0" y="355.0" font-family="Segoe UI, Arial, sans-serif" font-size="10" fill="#64748b"><tspan x="762.0" dy="0">packed: 105</tspan></text>
<rect x="972.0" y="332.0" width="300.0" height="16.0" rx="8.0" fill="#e5e7eb"/>
<rect x="972.0" y="332.0" width="298.0" height="16.0" rx="8.0" fill="#76b7b2"/>
<text x="1284.0" y="345.0" font-family="Segoe UI, Arial, sans-serif" font-size="12" font-weight="600" fill="#374151" text-anchor="start">99.32%</text>
<rect x="746.0" y="372.0" width="10.0" height="10.0" rx="3.0" fill="#edc949"/>
<text x="762.0" y="383.0" font-family="Segoe UI, Arial, sans-serif" font-size="13" font-weight="600" fill="#111827" text-anchor="start">rectpack2D-empty_spaces</text>
<text x="762.0" y="397.0" font-family="Segoe UI, Arial, sans-serif" font-size="10" fill="#64748b"><tspan x="762.0" dy="0">packed: 112</tspan></text>
<rect x="972.0" y="374.0" width="300.0" height="16.0" rx="8.0" fill="#e5e7eb"/>
<rect x="972.0" y="374.0" width="288.4" height="16.0" rx="8.0" fill="#edc949"/>
<text x="1284.0" y="387.0" font-family="Segoe UI, Arial, sans-serif" font-size="12" font-weight="600" fill="#374151" text-anchor="start">96.13%</text>
<rect x="24.0" y="430.0" width="1392.0" height="26.0" rx="10.0" fill="#111827"/>
<text x="720.0" y="448.0" font-family="Segoe UI, Arial, sans-serif" font-size="14" font-weight="700" fill="#ffffff" text-anchor="middle">HighFragment</text>
<rect x="24.0" y="466.0" width="690.0" height="352.0" rx="14.0" fill="#f8fafc" stroke="#e5e7eb" stroke-width="1"/>
<text x="40.0" y="490.0" font-family="Segoe UI, Arial, sans-serif" font-size="17" font-weight="700" fill="#111827" text-anchor="start">Speed (ns/attempt)</text>
<text x="40.0" y="506.0" font-family="Segoe UI, Arial, sans-serif" font-size="11" font-weight="400" fill="#6b7280" text-anchor="start">Longer bars indicate better results</text>
<rect x="38.0" y="526.0" width="10.0" height="10.0" rx="3.0" fill="#edc949"/>
<text x="54.0" y="537.0" font-family="Segoe UI, Arial, sans-serif" font-size="13" font-weight="600" fill="#111827" text-anchor="start">rectpack2D-empty_spaces</text>
<text x="54.0" y="551.0" font-family="Segoe UI, Arial, sans-serif" font-size="10" fill="#64748b"><tspan x="54.0" dy="0">packed: 10000</tspan></text>
<rect x="264.0" y="528.0" width="300.0" height="16.0" rx="8.0" fill="#e5e7eb"/>
<rect x="264.0" y="528.0" width="300.0" height="16.0" rx="8.0" fill="#edc949"/>
<text x="576.0" y="541.0" font-family="Segoe UI, Arial, sans-serif" font-size="12" font-weight="600" fill="#374151" text-anchor="start">21.190 ns</text>
<rect x="32.0" y="558.0" width="674.0" height="38.0" rx="8.0" fill="#eef2ff"/>
<rect x="38.0" y="568.0" width="10.0" height="10.0" rx="3.0" fill="#af7aa1"/>
<text x="54.0" y="579.0" font-family="Segoe UI, Arial, sans-serif" font-size="13" font-weight="600" fill="#111827" text-anchor="start">stb_rect_pack</text>
<text x="54.0" y="593.0" font-family="Segoe UI, Arial, sans-serif" font-size="10" fill="#64748b"><tspan x="54.0" dy="0">packed: 10000</tspan></text>
<rect x="264.0" y="570.0" width="300.0" height="16.0" rx="8.0" fill="#e5e7eb"/>
<rect x="264.0" y="570.0" width="6.7" height="16.0" rx="8.0" fill="#af7aa1"/>
<text x="576.0" y="583.0" font-family="Segoe UI, Arial, sans-serif" font-size="12" font-weight="600" fill="#374151" text-anchor="start">950.915 ns</text>
<rect x="38.0" y="610.0" width="10.0" height="10.0" rx="3.0" fill="#59a14f"/>
<text x="54.0" y="621.0" font-family="Segoe UI, Arial, sans-serif" font-size="13" font-weight="600" fill="#111827" text-anchor="start">allocator2d</text>
<text x="54.0" y="635.0" font-family="Segoe UI, Arial, sans-serif" font-size="10" fill="#64748b"><tspan x="54.0" dy="0">packed: 10000</tspan></text>
<rect x="264.0" y="612.0" width="300.0" height="16.0" rx="8.0" fill="#e5e7eb"/>
<rect x="264.0" y="612.0" width="4.0" height="16.0" rx="8.0" fill="#59a14f"/>
<text x="576.0" y="625.0" font-family="Segoe UI, Arial, sans-serif" font-size="12" font-weight="600" fill="#374151" text-anchor="start">3235.735 ns</text>
<rect x="32.0" y="642.0" width="674.0" height="38.0" rx="8.0" fill="#eef2ff"/>
<rect x="38.0" y="652.0" width="10.0" height="10.0" rx="3.0" fill="#4e79a7"/>
<text x="54.0" y="663.0" font-family="Segoe UI, Arial, sans-serif" font-size="13" font-weight="600" fill="#111827" text-anchor="start">RectangleBinPack-Guillotine-BAF</text>
<text x="54.0" y="677.0" font-family="Segoe UI, Arial, sans-serif" font-size="10" fill="#64748b"><tspan x="54.0" dy="0">packed: 10000</tspan></text>
<rect x="264.0" y="654.0" width="300.0" height="16.0" rx="8.0" fill="#e5e7eb"/>
<rect x="264.0" y="654.0" width="4.0" height="16.0" rx="8.0" fill="#4e79a7"/>
<text x="576.0" y="667.0" font-family="Segoe UI, Arial, sans-serif" font-size="12" font-weight="600" fill="#374151" text-anchor="start">6030.665 ns</text>
<rect x="38.0" y="694.0" width="10.0" height="10.0" rx="3.0" fill="#e15759"/>
<text x="54.0" y="705.0" font-family="Segoe UI, Arial, sans-serif" font-size="13" font-weight="600" fill="#111827" text-anchor="start">RectangleBinPack-MaxRects-BSSF</text>
<text x="54.0" y="719.0" font-family="Segoe UI, Arial, sans-serif" font-size="10" fill="#64748b"><tspan x="54.0" dy="0">packed: 10000</tspan></text>
<rect x="264.0" y="696.0" width="300.0" height="16.0" rx="8.0" fill="#e5e7eb"/>
<rect x="264.0" y="696.0" width="4.0" height="16.0" rx="8.0" fill="#e15759"/>
<text x="576.0" y="709.0" font-family="Segoe UI, Arial, sans-serif" font-size="12" font-weight="600" fill="#374151" text-anchor="start">8556.415 ns</text>
<rect x="32.0" y="726.0" width="674.0" height="38.0" rx="8.0" fill="#eef2ff"/>
<rect x="38.0" y="736.0" width="10.0" height="10.0" rx="3.0" fill="#f28e2b"/>
<text x="54.0" y="747.0" font-family="Segoe UI, Arial, sans-serif" font-size="13" font-weight="600" fill="#111827" text-anchor="start">RectangleBinPack-MaxRects-BAF</text>
<text x="54.0" y="761.0" font-family="Segoe UI, Arial, sans-serif" font-size="10" fill="#64748b"><tspan x="54.0" dy="0">packed: 10000</tspan></text>
<rect x="264.0" y="738.0" width="300.0" height="16.0" rx="8.0" fill="#e5e7eb"/>
<rect x="264.0" y="738.0" width="4.0" height="16.0" rx="8.0" fill="#f28e2b"/>
<text x="576.0" y="751.0" font-family="Segoe UI, Arial, sans-serif" font-size="12" font-weight="600" fill="#374151" text-anchor="start">14342.685 ns</text>
<rect x="38.0" y="778.0" width="10.0" height="10.0" rx="3.0" fill="#76b7b2"/>
<text x="54.0" y="789.0" font-family="Segoe UI, Arial, sans-serif" font-size="13" font-weight="600" fill="#111827" text-anchor="start">RectangleBinPack-Skyline-MWF</text>
<text x="54.0" y="803.0" font-family="Segoe UI, Arial, sans-serif" font-size="10" fill="#64748b"><tspan x="54.0" dy="0">packed: 9833</tspan></text>
<rect x="264.0" y="780.0" width="300.0" height="16.0" rx="8.0" fill="#e5e7eb"/>
<rect x="264.0" y="780.0" width="4.0" height="16.0" rx="8.0" fill="#76b7b2"/>
<text x="576.0" y="793.0" font-family="Segoe UI, Arial, sans-serif" font-size="12" font-weight="600" fill="#374151" text-anchor="start">46320.390 ns</text>
<rect x="732.0" y="466.0" width="690.0" height="352.0" rx="14.0" fill="#f8fafc" stroke="#e5e7eb" stroke-width="1"/>
<text x="748.0" y="490.0" font-family="Segoe UI, Arial, sans-serif" font-size="17" font-weight="700" fill="#111827" text-anchor="start">Space utilization (%)</text>
<text x="748.0" y="506.0" font-family="Segoe UI, Arial, sans-serif" font-size="11" font-weight="400" fill="#6b7280" text-anchor="start">Longer bars indicate better results</text>
<rect x="746.0" y="526.0" width="10.0" height="10.0" rx="3.0" fill="#edc949"/>
<text x="762.0" y="537.0" font-family="Segoe UI, Arial, sans-serif" font-size="13" font-weight="600" fill="#111827" text-anchor="start">rectpack2D-empty_spaces</text>
<text x="762.0" y="551.0" font-family="Segoe UI, Arial, sans-serif" font-size="10" fill="#64748b"><tspan x="762.0" dy="0">packed: 10000</tspan></text>
<rect x="972.0" y="528.0" width="300.0" height="16.0" rx="8.0" fill="#e5e7eb"/>
<rect x="972.0" y="528.0" width="284.2" height="16.0" rx="8.0" fill="#edc949"/>
<text x="1284.0" y="541.0" font-family="Segoe UI, Arial, sans-serif" font-size="12" font-weight="600" fill="#374151" text-anchor="start">94.73%</text>
<rect x="740.0" y="558.0" width="674.0" height="38.0" rx="8.0" fill="#eef2ff"/>
<rect x="746.0" y="568.0" width="10.0" height="10.0" rx="3.0" fill="#af7aa1"/>
<text x="762.0" y="579.0" font-family="Segoe UI, Arial, sans-serif" font-size="13" font-weight="600" fill="#111827" text-anchor="start">stb_rect_pack</text>
<text x="762.0" y="593.0" font-family="Segoe UI, Arial, sans-serif" font-size="10" fill="#64748b"><tspan x="762.0" dy="0">packed: 10000</tspan></text>
<rect x="972.0" y="570.0" width="300.0" height="16.0" rx="8.0" fill="#e5e7eb"/>
<rect x="972.0" y="570.0" width="284.2" height="16.0" rx="8.0" fill="#af7aa1"/>
<text x="1284.0" y="583.0" font-family="Segoe UI, Arial, sans-serif" font-size="12" font-weight="600" fill="#374151" text-anchor="start">94.73%</text>
<rect x="746.0" y="610.0" width="10.0" height="10.0" rx="3.0" fill="#59a14f"/>
<text x="762.0" y="621.0" font-family="Segoe UI, Arial, sans-serif" font-size="13" font-weight="600" fill="#111827" text-anchor="start">allocator2d</text>
<text x="762.0" y="635.0" font-family="Segoe UI, Arial, sans-serif" font-size="10" fill="#64748b"><tspan x="762.0" dy="0">packed: 10000</tspan></text>
<rect x="972.0" y="612.0" width="300.0" height="16.0" rx="8.0" fill="#e5e7eb"/>
<rect x="972.0" y="612.0" width="284.2" height="16.0" rx="8.0" fill="#59a14f"/>
<text x="1284.0" y="625.0" font-family="Segoe UI, Arial, sans-serif" font-size="12" font-weight="600" fill="#374151" text-anchor="start">94.73%</text>
<rect x="740.0" y="642.0" width="674.0" height="38.0" rx="8.0" fill="#eef2ff"/>
<rect x="746.0" y="652.0" width="10.0" height="10.0" rx="3.0" fill="#4e79a7"/>
<text x="762.0" y="663.0" font-family="Segoe UI, Arial, sans-serif" font-size="13" font-weight="600" fill="#111827" text-anchor="start">RectangleBinPack-Guillotine-BAF</text>
<text x="762.0" y="677.0" font-family="Segoe UI, Arial, sans-serif" font-size="10" fill="#64748b"><tspan x="762.0" dy="0">packed: 10000</tspan></text>
<rect x="972.0" y="654.0" width="300.0" height="16.0" rx="8.0" fill="#e5e7eb"/>
<rect x="972.0" y="654.0" width="284.2" height="16.0" rx="8.0" fill="#4e79a7"/>
<text x="1284.0" y="667.0" font-family="Segoe UI, Arial, sans-serif" font-size="12" font-weight="600" fill="#374151" text-anchor="start">94.73%</text>
<rect x="746.0" y="694.0" width="10.0" height="10.0" rx="3.0" fill="#e15759"/>
<text x="762.0" y="705.0" font-family="Segoe UI, Arial, sans-serif" font-size="13" font-weight="600" fill="#111827" text-anchor="start">RectangleBinPack-MaxRects-BSSF</text>
<text x="762.0" y="719.0" font-family="Segoe UI, Arial, sans-serif" font-size="10" fill="#64748b"><tspan x="762.0" dy="0">packed: 10000</tspan></text>
<rect x="972.0" y="696.0" width="300.0" height="16.0" rx="8.0" fill="#e5e7eb"/>
<rect x="972.0" y="696.0" width="284.2" height="16.0" rx="8.0" fill="#e15759"/>
<text x="1284.0" y="709.0" font-family="Segoe UI, Arial, sans-serif" font-size="12" font-weight="600" fill="#374151" text-anchor="start">94.73%</text>
<rect x="740.0" y="726.0" width="674.0" height="38.0" rx="8.0" fill="#eef2ff"/>
<rect x="746.0" y="736.0" width="10.0" height="10.0" rx="3.0" fill="#f28e2b"/>
<text x="762.0" y="747.0" font-family="Segoe UI, Arial, sans-serif" font-size="13" font-weight="600" fill="#111827" text-anchor="start">RectangleBinPack-MaxRects-BAF</text>
<text x="762.0" y="761.0" font-family="Segoe UI, Arial, sans-serif" font-size="10" fill="#64748b"><tspan x="762.0" dy="0">packed: 10000</tspan></text>
<rect x="972.0" y="738.0" width="300.0" height="16.0" rx="8.0" fill="#e5e7eb"/>
<rect x="972.0" y="738.0" width="284.2" height="16.0" rx="8.0" fill="#f28e2b"/>
<text x="1284.0" y="751.0" font-family="Segoe UI, Arial, sans-serif" font-size="12" font-weight="600" fill="#374151" text-anchor="start">94.73%</text>
<rect x="746.0" y="778.0" width="10.0" height="10.0" rx="3.0" fill="#76b7b2"/>
<text x="762.0" y="789.0" font-family="Segoe UI, Arial, sans-serif" font-size="13" font-weight="600" fill="#111827" text-anchor="start">RectangleBinPack-Skyline-MWF</text>
<text x="762.0" y="803.0" font-family="Segoe UI, Arial, sans-serif" font-size="10" fill="#64748b"><tspan x="762.0" dy="0">packed: 9833</tspan></text>
<rect x="972.0" y="780.0" width="300.0" height="16.0" rx="8.0" fill="#e5e7eb"/>
<rect x="972.0" y="780.0" width="283.2" height="16.0" rx="8.0" fill="#76b7b2"/>
<text x="1284.0" y="793.0" font-family="Segoe UI, Arial, sans-serif" font-size="12" font-weight="600" fill="#374151" text-anchor="start">94.40%</text>
<rect x="24.0" y="836.0" width="1392.0" height="26.0" rx="10.0" fill="#111827"/>
<text x="720.0" y="854.0" font-family="Segoe UI, Arial, sans-serif" font-size="14" font-weight="700" fill="#ffffff" text-anchor="middle">Aligned</text>
<rect x="24.0" y="872.0" width="690.0" height="352.0" rx="14.0" fill="#f8fafc" stroke="#e5e7eb" stroke-width="1"/>
<text x="40.0" y="896.0" font-family="Segoe UI, Arial, sans-serif" font-size="17" font-weight="700" fill="#111827" text-anchor="start">Speed (ns/attempt)</text>
<text x="40.0" y="912.0" font-family="Segoe UI, Arial, sans-serif" font-size="11" font-weight="400" fill="#6b7280" text-anchor="start">Longer bars indicate better results</text>
<rect x="38.0" y="932.0" width="10.0" height="10.0" rx="3.0" fill="#edc949"/>
<text x="54.0" y="943.0" font-family="Segoe UI, Arial, sans-serif" font-size="13" font-weight="600" fill="#111827" text-anchor="start">rectpack2D-empty_spaces</text>
<text x="54.0" y="957.0" font-family="Segoe UI, Arial, sans-serif" font-size="10" fill="#64748b"><tspan x="54.0" dy="0">packed: 4096</tspan></text>
<rect x="264.0" y="934.0" width="300.0" height="16.0" rx="8.0" fill="#e5e7eb"/>
<rect x="264.0" y="934.0" width="300.0" height="16.0" rx="8.0" fill="#edc949"/>
<text x="576.0" y="947.0" font-family="Segoe UI, Arial, sans-serif" font-size="12" font-weight="600" fill="#374151" text-anchor="start">5.050 ns</text>
<rect x="32.0" y="964.0" width="674.0" height="38.0" rx="8.0" fill="#eef2ff"/>
<rect x="38.0" y="974.0" width="10.0" height="10.0" rx="3.0" fill="#4e79a7"/>
<text x="54.0" y="985.0" font-family="Segoe UI, Arial, sans-serif" font-size="13" font-weight="600" fill="#111827" text-anchor="start">RectangleBinPack-Guillotine-BAF</text>
<text x="54.0" y="999.0" font-family="Segoe UI, Arial, sans-serif" font-size="10" fill="#64748b"><tspan x="54.0" dy="0">packed: 4096</tspan></text>
<rect x="264.0" y="976.0" width="300.0" height="16.0" rx="8.0" fill="#e5e7eb"/>
<rect x="264.0" y="976.0" width="101.7" height="16.0" rx="8.0" fill="#4e79a7"/>
<text x="576.0" y="989.0" font-family="Segoe UI, Arial, sans-serif" font-size="12" font-weight="600" fill="#374151" text-anchor="start">14.900 ns</text>
<rect x="38.0" y="1016.0" width="10.0" height="10.0" rx="3.0" fill="#e15759"/>
<text x="54.0" y="1027.0" font-family="Segoe UI, Arial, sans-serif" font-size="13" font-weight="600" fill="#111827" text-anchor="start">RectangleBinPack-MaxRects-BSSF</text>
<text x="54.0" y="1041.0" font-family="Segoe UI, Arial, sans-serif" font-size="10" fill="#64748b"><tspan x="54.0" dy="0">packed: 4096</tspan></text>
<rect x="264.0" y="1018.0" width="300.0" height="16.0" rx="8.0" fill="#e5e7eb"/>
<rect x="264.0" y="1018.0" width="75.5" height="16.0" rx="8.0" fill="#e15759"/>
<text x="576.0" y="1031.0" font-family="Segoe UI, Arial, sans-serif" font-size="12" font-weight="600" fill="#374151" text-anchor="start">20.070 ns</text>
<rect x="32.0" y="1048.0" width="674.0" height="38.0" rx="8.0" fill="#eef2ff"/>
<rect x="38.0" y="1058.0" width="10.0" height="10.0" rx="3.0" fill="#f28e2b"/>
<text x="54.0" y="1069.0" font-family="Segoe UI, Arial, sans-serif" font-size="13" font-weight="600" fill="#111827" text-anchor="start">RectangleBinPack-MaxRects-BAF</text>
<text x="54.0" y="1083.0" font-family="Segoe UI, Arial, sans-serif" font-size="10" fill="#64748b"><tspan x="54.0" dy="0">packed: 4096</tspan></text>
<rect x="264.0" y="1060.0" width="300.0" height="16.0" rx="8.0" fill="#e5e7eb"/>
<rect x="264.0" y="1060.0" width="63.2" height="16.0" rx="8.0" fill="#f28e2b"/>
<text x="576.0" y="1073.0" font-family="Segoe UI, Arial, sans-serif" font-size="12" font-weight="600" fill="#374151" text-anchor="start">23.985 ns</text>
<rect x="38.0" y="1100.0" width="10.0" height="10.0" rx="3.0" fill="#af7aa1"/>
<text x="54.0" y="1111.0" font-family="Segoe UI, Arial, sans-serif" font-size="13" font-weight="600" fill="#111827" text-anchor="start">stb_rect_pack</text>
<text x="54.0" y="1125.0" font-family="Segoe UI, Arial, sans-serif" font-size="10" fill="#64748b"><tspan x="54.0" dy="0">packed: 4096</tspan></text>
<rect x="264.0" y="1102.0" width="300.0" height="16.0" rx="8.0" fill="#e5e7eb"/>
<rect x="264.0" y="1102.0" width="4.0" height="16.0" rx="8.0" fill="#af7aa1"/>
<text x="576.0" y="1115.0" font-family="Segoe UI, Arial, sans-serif" font-size="12" font-weight="600" fill="#374151" text-anchor="start">424.315 ns</text>
<rect x="32.0" y="1132.0" width="674.0" height="38.0" rx="8.0" fill="#eef2ff"/>
<rect x="38.0" y="1142.0" width="10.0" height="10.0" rx="3.0" fill="#59a14f"/>
<text x="54.0" y="1153.0" font-family="Segoe UI, Arial, sans-serif" font-size="13" font-weight="600" fill="#111827" text-anchor="start">allocator2d</text>
<text x="54.0" y="1167.0" font-family="Segoe UI, Arial, sans-serif" font-size="10" fill="#64748b"><tspan x="54.0" dy="0">packed: 4096</tspan></text>
<rect x="264.0" y="1144.0" width="300.0" height="16.0" rx="8.0" fill="#e5e7eb"/>
<rect x="264.0" y="1144.0" width="4.0" height="16.0" rx="8.0" fill="#59a14f"/>
<text x="576.0" y="1157.0" font-family="Segoe UI, Arial, sans-serif" font-size="12" font-weight="600" fill="#374151" text-anchor="start">607.030 ns</text>
<rect x="38.0" y="1184.0" width="10.0" height="10.0" rx="3.0" fill="#76b7b2"/>
<text x="54.0" y="1195.0" font-family="Segoe UI, Arial, sans-serif" font-size="13" font-weight="600" fill="#111827" text-anchor="start">RectangleBinPack-Skyline-MWF</text>
<text x="54.0" y="1209.0" font-family="Segoe UI, Arial, sans-serif" font-size="10" fill="#64748b"><tspan x="54.0" dy="0">packed: 4096</tspan></text>
<rect x="264.0" y="1186.0" width="300.0" height="16.0" rx="8.0" fill="#e5e7eb"/>
<rect x="264.0" y="1186.0" width="4.0" height="16.0" rx="8.0" fill="#76b7b2"/>
<text x="576.0" y="1199.0" font-family="Segoe UI, Arial, sans-serif" font-size="12" font-weight="600" fill="#374151" text-anchor="start">7588.280 ns</text>
<rect x="732.0" y="872.0" width="690.0" height="352.0" rx="14.0" fill="#f8fafc" stroke="#e5e7eb" stroke-width="1"/>
<text x="748.0" y="896.0" font-family="Segoe UI, Arial, sans-serif" font-size="17" font-weight="700" fill="#111827" text-anchor="start">Space utilization (%)</text>
<text x="748.0" y="912.0" font-family="Segoe UI, Arial, sans-serif" font-size="11" font-weight="400" fill="#6b7280" text-anchor="start">Longer bars indicate better results</text>
<rect x="746.0" y="932.0" width="10.0" height="10.0" rx="3.0" fill="#edc949"/>
<text x="762.0" y="943.0" font-family="Segoe UI, Arial, sans-serif" font-size="13" font-weight="600" fill="#111827" text-anchor="start">rectpack2D-empty_spaces</text>
<text x="762.0" y="957.0" font-family="Segoe UI, Arial, sans-serif" font-size="10" fill="#64748b"><tspan x="762.0" dy="0">packed: 4096</tspan></text>
<rect x="972.0" y="934.0" width="300.0" height="16.0" rx="8.0" fill="#e5e7eb"/>
<rect x="972.0" y="934.0" width="300.0" height="16.0" rx="8.0" fill="#edc949"/>
<text x="1284.0" y="947.0" font-family="Segoe UI, Arial, sans-serif" font-size="12" font-weight="600" fill="#374151" text-anchor="start">100.00%</text>
<rect x="740.0" y="964.0" width="674.0" height="38.0" rx="8.0" fill="#eef2ff"/>
<rect x="746.0" y="974.0" width="10.0" height="10.0" rx="3.0" fill="#4e79a7"/>
<text x="762.0" y="985.0" font-family="Segoe UI, Arial, sans-serif" font-size="13" font-weight="600" fill="#111827" text-anchor="start">RectangleBinPack-Guillotine-BAF</text>
<text x="762.0" y="999.0" font-family="Segoe UI, Arial, sans-serif" font-size="10" fill="#64748b"><tspan x="762.0" dy="0">packed: 4096</tspan></text>
<rect x="972.0" y="976.0" width="300.0" height="16.0" rx="8.0" fill="#e5e7eb"/>
<rect x="972.0" y="976.0" width="300.0" height="16.0" rx="8.0" fill="#4e79a7"/>
<text x="1284.0" y="989.0" font-family="Segoe UI, Arial, sans-serif" font-size="12" font-weight="600" fill="#374151" text-anchor="start">100.00%</text>
<rect x="746.0" y="1016.0" width="10.0" height="10.0" rx="3.0" fill="#e15759"/>
<text x="762.0" y="1027.0" font-family="Segoe UI, Arial, sans-serif" font-size="13" font-weight="600" fill="#111827" text-anchor="start">RectangleBinPack-MaxRects-BSSF</text>
<text x="762.0" y="1041.0" font-family="Segoe UI, Arial, sans-serif" font-size="10" fill="#64748b"><tspan x="762.0" dy="0">packed: 4096</tspan></text>
<rect x="972.0" y="1018.0" width="300.0" height="16.0" rx="8.0" fill="#e5e7eb"/>
<rect x="972.0" y="1018.0" width="300.0" height="16.0" rx="8.0" fill="#e15759"/>
<text x="1284.0" y="1031.0" font-family="Segoe UI, Arial, sans-serif" font-size="12" font-weight="600" fill="#374151" text-anchor="start">100.00%</text>
<rect x="740.0" y="1048.0" width="674.0" height="38.0" rx="8.0" fill="#eef2ff"/>
<rect x="746.0" y="1058.0" width="10.0" height="10.0" rx="3.0" fill="#f28e2b"/>
<text x="762.0" y="1069.0" font-family="Segoe UI, Arial, sans-serif" font-size="13" font-weight="600" fill="#111827" text-anchor="start">RectangleBinPack-MaxRects-BAF</text>
<text x="762.0" y="1083.0" font-family="Segoe UI, Arial, sans-serif" font-size="10" fill="#64748b"><tspan x="762.0" dy="0">packed: 4096</tspan></text>
<rect x="972.0" y="1060.0" width="300.0" height="16.0" rx="8.0" fill="#e5e7eb"/>
<rect x="972.0" y="1060.0" width="300.0" height="16.0" rx="8.0" fill="#f28e2b"/>
<text x="1284.0" y="1073.0" font-family="Segoe UI, Arial, sans-serif" font-size="12" font-weight="600" fill="#374151" text-anchor="start">100.00%</text>
<rect x="746.0" y="1100.0" width="10.0" height="10.0" rx="3.0" fill="#af7aa1"/>
<text x="762.0" y="1111.0" font-family="Segoe UI, Arial, sans-serif" font-size="13" font-weight="600" fill="#111827" text-anchor="start">stb_rect_pack</text>
<text x="762.0" y="1125.0" font-family="Segoe UI, Arial, sans-serif" font-size="10" fill="#64748b"><tspan x="762.0" dy="0">packed: 4096</tspan></text>
<rect x="972.0" y="1102.0" width="300.0" height="16.0" rx="8.0" fill="#e5e7eb"/>
<rect x="972.0" y="1102.0" width="300.0" height="16.0" rx="8.0" fill="#af7aa1"/>
<text x="1284.0" y="1115.0" font-family="Segoe UI, Arial, sans-serif" font-size="12" font-weight="600" fill="#374151" text-anchor="start">100.00%</text>
<rect x="740.0" y="1132.0" width="674.0" height="38.0" rx="8.0" fill="#eef2ff"/>
<rect x="746.0" y="1142.0" width="10.0" height="10.0" rx="3.0" fill="#59a14f"/>
<text x="762.0" y="1153.0" font-family="Segoe UI, Arial, sans-serif" font-size="13" font-weight="600" fill="#111827" text-anchor="start">allocator2d</text>
<text x="762.0" y="1167.0" font-family="Segoe UI, Arial, sans-serif" font-size="10" fill="#64748b"><tspan x="762.0" dy="0">packed: 4096</tspan></text>
<rect x="972.0" y="1144.0" width="300.0" height="16.0" rx="8.0" fill="#e5e7eb"/>
<rect x="972.0" y="1144.0" width="300.0" height="16.0" rx="8.0" fill="#59a14f"/>
<text x="1284.0" y="1157.0" font-family="Segoe UI, Arial, sans-serif" font-size="12" font-weight="600" fill="#374151" text-anchor="start">100.00%</text>
<rect x="746.0" y="1184.0" width="10.0" height="10.0" rx="3.0" fill="#76b7b2"/>
<text x="762.0" y="1195.0" font-family="Segoe UI, Arial, sans-serif" font-size="13" font-weight="600" fill="#111827" text-anchor="start">RectangleBinPack-Skyline-MWF</text>
<text x="762.0" y="1209.0" font-family="Segoe UI, Arial, sans-serif" font-size="10" fill="#64748b"><tspan x="762.0" dy="0">packed: 4096</tspan></text>
<rect x="972.0" y="1186.0" width="300.0" height="16.0" rx="8.0" fill="#e5e7eb"/>
<rect x="972.0" y="1186.0" width="300.0" height="16.0" rx="8.0" fill="#76b7b2"/>
<text x="1284.0" y="1199.0" font-family="Segoe UI, Arial, sans-serif" font-size="12" font-weight="600" fill="#374151" text-anchor="start">100.00%</text>
<text x="24.0" y="1252.0" font-family="Segoe UI, Arial, sans-serif" font-size="11" font-weight="400" fill="#6b7280" text-anchor="start">Longer bars mean better results within each case.</text>
</svg>